# AST/ASF file generated using VICON BodyLanguage
# -----------------------------------------------
:version 1.10
:name VICON
:units
  mass 1.0
  length 0.45
  angle deg
:documentation
   .ast/.asf automatically generated from VICON data using
   VICON BodyBuilder and BodyLanguage model FoxedUp or BRILLIANT.MOD
:root
   order TX TY TZ RX RY RZ
   axis XYZ
   position 0 0 0  
   orientation 0 0 0 
:bonedata
  begin
     id 1 
     name lhipjoint
     direction 0.588788 -0.725889 0.355548 
     length 2.37778 
     axis 0 0 0  XYZ
  end
  begin
     id 2 
     name lfemur
     direction 0.34202 -0.939693 0  
     length 6.86393  
     axis 0 0 20  XYZ
    dof rx ry rz
    limits (-160.0 20.0)
           (-70.0 70.0)
           (-60.0 70.0)
  end
  begin
     id 3 
     name ltibia
     direction 0.34202 -0.939693 0   
     length 7.32851   
     axis 0 0 20   XYZ
    dof rx
    limits (-10.0 170.0)
  end
  begin
     id 4 
     name lfoot
     direction 0.0626533 -0.172138 0.983078   
     length 1.98929   
     axis -90 7.62852e-016 20   XYZ
    dof rx rz
    limits (-45.0 90.0)
           (-70.0 20.0)
  end
  begin
     id 5 
     name ltoes
     direction 1.53647e-011 -4.21734e-011 1   
     length 1.00479   
     axis -90 7.62852e-016 20   XYZ
    dof rx
    limits (-90.0 20.0)
  end
  begin
     id 6 
     name rhipjoint
     direction -0.59141 -0.724168 0.354705   
     length 2.38343  
     axis 0 0 0  XYZ 
  end
  begin
     id 7 
     name rfemur
     direction -0.34202 -0.939693 0   
     length 6.95589   
     axis 0 0 -20   XYZ
    dof rx ry rz
    limits (-160.0 20.0)
           (-70.0 70.0)
           (-70.0 60.0)
  end
  begin
     id 8 
     name rtibia
     direction -0.34202 -0.939693 0   
     length 7.32327   
     axis 0 0 -20   XYZ
    dof rx
    limits (-10.0 170.0)
 end
 begin
     id 9 
     name rfoot
     direction -0.0660461 -0.18146 0.981178   
     length 1.85272  
     axis -90 -7.62852e-016 -20   XYZ
    dof rx rz
    limits (-45.0 90.0)
           (-20.0 70.0)
  end
  begin
     id 10 
     name rtoes
     direction -1.53586e-011 -4.21988e-011 1   
     length 0.93746   
     axis -90 -7.62852e-016 -20   XYZ
    dof rx
    limits (-90.0 20.0)
  end
  begin
     id 11 
     name lowerback
     direction -0.0107982 0.991059 0.13299   
     length 1.98691   
     axis 0 0 0   XYZ
    dof rx ry rz
    limits (-20.0 45.0)
           (-30.0 30.0)
           (-30.0 30.0)
  end
  begin
     id 12 
     name upperback
     direction 0.0076296 0.999916 0.0104576   
     length 1.99501   
     axis 0 0 0   XYZ
    dof rx ry rz
    limits (-20.0 45.0)
           (-30.0 30.0)
           (-30.0 30.0)
  end
  begin
     id 13 
     name thorax
     direction 0.01176 0.998615 -0.0512909   
     length 2.03144   
     axis 0 0 0   XYZ
    dof rx ry rz
    limits (-20.0 45.0)
           (-30.0 30.0)
           (-30.0 30.0)
  end
  begin
     id 14 
     name lowerneck
     direction -0.0171909 0.999644 0.0204011   
     length 1.71818   
     axis 0 0 0   XYZ
    dof rx ry rz
    limits (-20.0 45.0)
           (-30.0 30.0)
           (-30.0 30.0)
  end
  begin
     id 15 
     name upperneck
     direction 0.0250902 0.997482 -0.0663316   
     length 1.66199   
     axis 0 0 0   XYZ
    dof rx ry rz
    limits (-20.0 45.0)
           (-30.0 30.0)
           (-30.0 30.0)
  end
  begin
     id 16
     name head
     direction 0.00881535 0.99956 -0.0283365  
     length 1.81545  
     axis 0 0 0   XYZ
    dof rx ry rz
    limits (-20.0 45.0)
           (-30.0 30.0)
           (-30.0 30.0)
  end
  begin
     id 17 
     name lclavicle
     direction 0.840411 0.486876 -0.238035  
     length 3.30409  
     axis 0 0 0   XYZ
    dof ry rz
    limits (-20.0 10.0)
           (0.0 20.0)
  end
  begin
     id 18 
     name lhumerus
     direction 1 -4.48977e-011 -5.16239e-027   
     length 4.62672   
     axis 180 -30 -90   XYZ
    dof rx ry rz
    limits (-60.0 90.0)
           (-90.0 90.0)
           (-90.0 90.0)
  end
  begin
     id 19
     name lradius
     direction 1 -4.48977e-011 -8.71171e-027   
     length 3.11018   
     axis 180 -30 -90   XYZ
    dof rx
    limits (-10.0 170.0)
  end
  begin
     id 20
     name lwrist
     direction 1 -4.48912e-011 -1.03764e-026   
     length 1.55509   
     axis 9.09556e-015 90 90   XYZ
    dof ry
    limits (-180.0 0.0)
 end
  begin
     id 21 
     name lhand
     direction 1 -4.49072e-011 -2.07528e-026   
     length 0.743834   
     axis 1.3242e-014 90 90   XYZ
    dof rx rz
    limits (-90.0 90.0)
           (-45.0 45.0)
  end
  begin
     id 22 
     name lfingers
     direction 1 -4.48909e-011 -4.15056e-026   
     length 0.599698   
     axis 2.64841e-014 90 90   XYZ
    dof rx
    limits (0.0 90.0)
  end
  begin
     id 23
     name lthumb
     direction 0.707107 -6.35013e-011 0.707107   
     length 0.86105   
     axis -90 45 2.85299e-015   XYZ
    dof rx rz
    limits (-45.0 45.0)
           (-45.0 45.0)
  end
  begin
     id 24 
     name rclavicle
     direction -0.835208 0.500237 -0.228452   
     length 3.2716  
     axis 0 0 0   XYZ 
    dof ry rz
    limits (-10.0 20.0)
           (-20.0 0.0)
  end
  begin
     id 25 
     name rhumerus
     direction -1 -4.48978e-011 -5.1953e-028  
     length 4.55919   
     axis 180 30 90   XYZ
    dof rx ry rz
    limits (-90.0 60.0)
           (-90.0 90.0)
           (-90.0 90.0)
  end
  begin
     id 26 
     name rradius
     direction -1 -4.48961e-011 -5.99546e-027   
     length 3.22748   
     axis 180 30 90   XYZ
    dof rx
    limits (-10.0 170.0)
  end
  begin
     id 27 
     name rwrist
     direction -1 -4.48986e-011 -1.03764e-026   
     length 1.61374   
     axis 9.09556e-015 -90 -90   XYZ
    dof ry
    limits (-180.0 0.0)
  end
  begin
     id 28
     name rhand
     direction -1 -4.4899e-011 -2.07528e-026   
     length 0.700882   
     axis 1.3242e-014 -90 -90   XYZ
    dof rx rz
    limits (-90.0 90.0)
           (-45.0 45.0)
  end
  begin
     id 29
     name rfingers
     direction -1 -4.48991e-011 -4.15056e-026   
     length 0.565069   
     axis 2.64841e-014 -90 -90   XYZ
    dof rx
    limits (0.0 90.0)
  end
  begin
     id 30
     name rthumb
     direction -0.707107 -6.34804e-011 0.707107   
     length 0.811329   
     axis -90 -45 -2.85299e-015   XYZ
    dof rx rz
    limits (-45.0 45.0)
           (-45.0 45.0)
  end
:hierarchy
  begin
    root lhipjoint rhipjoint lowerback
    lhipjoint lfemur
    lfemur ltibia
    ltibia lfoot
    lfoot ltoes
    rhipjoint rfemur
    rfemur rtibia
    rtibia rfoot
    rfoot rtoes
    lowerback upperback
    upperback thorax
    thorax lowerneck lclavicle rclavicle
    lowerneck upperneck
    upperneck head
    lclavicle lhumerus
    lhumerus lradius
    lradius lwrist
    lwrist lhand lthumb
    lhand lfingers
    rclavicle rhumerus
    rhumerus rradius
    rradius rwrist
    rwrist rhand rthumb
    rhand rfingers
  end

#!OML:ASF F:\VICON\USERDATA\INSTALL\SteveWalk\SteveWalk.ASF
:FULLY-SPECIFIED
:DEGREES
336
root 0.344957 15.7062 33.0679 18.1396 6.16936 0.532115
lowerback -16.2531 -2.30541 1.93494
upperback -5.53011 -3.41709 1.99523
thorax 3.22327 -1.68784 0.368044
lowerneck -5.3533 -0.646259 -0.43125
upperneck 8.26092 -0.817574 -0.142628
head 3.62137 -0.424927 -0.0103214
rclavicle 2.26351e-014 1.90833e-014
rhumerus -95.7277 -38.7297 7.36236
rradius 10.7172
rwrist 63.2687
rhand -13.834 -34.5098
rfingers 7.12502
rthumb 12.2892 -64.1287
lclavicle 2.26351e-014 1.90833e-014
lhumerus -20.1028 -5.35728 83.7495
lradius 63.4543
lwrist 16.0126
lhand -23.8546 -19.3326
lfingers 7.12502
lthumb 2.61778 10.6311
rfemur -51.6669 0.282284 21.3346
rtibia 35.1523
rfoot -4.73812 3.69504
rtoes -13.5773
lfemur -4.23067 -0.573837 -19.6897
ltibia 40.4428
lfoot 10.417 -13.3744
ltoes -1.32771
337
root 0.345744 15.7186 33.3088 17.9625 5.77942 0.240013
lowerback -15.7921 -2.07727 2.46031
upperback -5.80584 -3.1721 1.97089
thorax 2.65737 -1.57809 0.118296
lowerneck -4.76266 -0.601853 -0.279776
upperneck 8.04318 -0.767642 -0.21526
head 3.42922 -0.398124 -0.0554889
rclavicle 5.21313e-014 -2.38542e-014
rhumerus -95.4376 -38.8748 6.86554
rradius 10.6776
rwrist 63.0257
rhand -14.1653 -34.3205
rfingers 7.12502
rthumb 11.9697 -63.9582
lclavicle 5.21313e-014 -2.38542e-014
lhumerus -21.6248 -5.33736 83.887
lradius 63.3051
lwrist 16.2431
lhand -23.7446 -19.1133
lfingers 7.12502
lthumb 2.724 10.8491
rfemur -51.2782 0.727134 21.7361
rtibia 36.4039
rfoot -5.38233 4.64222
rtoes -9.01053
lfemur -5.55574 -0.340905 -19.4177
ltibia 43.4633
lfoot 13.5433 -13.2637
ltoes -3.064
338
root 0.344505 15.736 33.5568 17.8341 5.6245 0.230033
lowerback -15.9938 -2.0561 2.42313
upperback -5.63292 -3.15608 2.07078
thorax 2.95518 -1.56445 0.234108
lowerneck -4.42036 -0.55673 -0.314427
upperneck 7.52253 -0.6981 -0.321737
head 3.1831 -0.36789 -0.0783706
rclavicle 1.49089e-015 -1.51076e-014
rhumerus -93.9107 -39.7639 4.64946
rradius 10.7919
rwrist 61.3394
rhand -14.3941 -35.2659
rfingers 7.12502
rthumb 11.7491 -64.9164
lclavicle 1.49089e-015 -1.51076e-014
lhumerus -22.4346 -4.93758 84.2121
lradius 62.9814
lwrist 16.2711
lhand -23.644 -18.7269
lfingers 7.12502
lthumb 2.82113 11.2342
rfemur -50.7241 0.823071 21.9488
rtibia 37.41
rfoot -6.02096 4.96861
rtoes -3.57744
lfemur -6.90904 -0.398117 -19.3908
ltibia 46.4777
lfoot 16.2947 -13.6978
ltoes -4.99232
339
root 0.340078 15.7553 33.8069 17.6551 5.48237 -0.0659532
lowerback -16.2152 -1.97642 2.61722
upperback -5.40835 -3.1047 2.23212
thorax 3.30915 -1.53311 0.289709
lowerneck -4.43369 -0.503488 -0.31191
upperneck 7.30098 -0.621306 -0.400048
head 3.10936 -0.332191 -0.100469
rclavicle -1.39149e-014 -1.03368e-014
rhumerus -90.5306 -40.6214 -0.448439
rradius 11.036
rwrist 57.6515
rhand -12.3552 -31.629
rfingers 7.12502
rthumb 13.7147 -61.1571
lclavicle -1.39149e-014 -1.03368e-014
lhumerus -23.0757 -4.53693 84.6121
lradius 62.3347
lwrist 16.2519
lhand -23.4758 -18.5209
lfingers 7.12502
lthumb 2.98362 11.4379
rfemur -49.9703 1.01358 22.4925
rtibia 38.2349
rfoot -7.02884 4.6882
rtoes -3.22283
lfemur -8.24591 -0.333373 -19.0451
ltibia 49.5273
lfoot 18.8572 -14.1511
ltoes -8.23285
340
root 0.342557 15.7714 34.0339 17.3687 5.61513 -0.850637
lowerback -16.0206 -1.829 3.51939
upperback -5.28424 -3.05479 2.41621
thorax 3.2981 -1.5096 -0.00966562
lowerneck -4.62001 -0.502036 -0.254104
upperneck 7.28379 -0.627127 -0.345871
head 3.139 -0.331541 -0.093812
rclavicle -1.19799e-014 -3.89618e-014
rhumerus -89.4594 -41.5095 -1.96669
rradius 11.0793
rwrist 56.3473
rhand -13.3377 -31.5897
rfingers 7.12502
rthumb 12.7676 -61.1793
lclavicle -1.19799e-014 -3.89618e-014
lhumerus -23.6938 -4.22991 84.9414
lradius 61.387
lwrist 16.0203
lhand -23.2567 -18.5731
lfingers 7.12502
lthumb 3.19516 11.3827
rfemur -49.0559 1.01405 23.6344
rtibia 38.891
rfoot -8.19008 4.51292
rtoes -4.95114
lfemur -9.72808 -0.33929 -18.1022
ltibia 52.657
lfoot 21.3135 -13.6937
ltoes -10.9449
341
root 0.343209 15.7795 34.2386 17.1916 5.75766 -1.10881
lowerback -15.5453 -1.72409 3.86616
upperback -5.2983 -2.94458 2.45356
thorax 3.01566 -1.46132 -0.127673
lowerneck -4.70585 -0.683034 -0.398143
upperneck 7.25471 -0.875537 -0.123881
head 3.14715 -0.450473 -0.00739046
rclavicle 4.21284e-014 -1.98785e-014
rhumerus -90.5384 -42.6556 -0.282293
rradius 10.8694
rwrist 57.3529
rhand -14.5104 -33.5532
rfingers 7.12502
rthumb 11.6369 -63.21
lclavicle 4.21284e-014 -1.98785e-014
lhumerus -24.3546 -3.9894 85.3858
lradius 60.333
lwrist 15.6715
lhand -22.9922 -18.362
lfingers 7.12502
lthumb 3.45065 11.5898
rfemur -48.2656 0.866127 24.1465
rtibia 39.3866
rfoot -9.21555 4.46192
rtoes -4.98664
lfemur -11.4883 -0.419198 -17.7303
ltibia 55.7713
lfoot 23.2258 -12.5005
ltoes -13.3788
342
root 0.33243 15.7917 34.4416 17.1925 5.74503 -0.960774
lowerback -15.2433 -1.67667 3.52096
upperback -5.35611 -2.81381 2.48367
thorax 2.81646 -1.39856 0.131341
lowerneck -4.79949 -0.861237 -0.596084
upperneck 7.29956 -1.11278 0.0611149
head 3.18354 -0.566742 0.0765311
rclavicle 1.38217e-016 -9.54166e-015
rhumerus -86.7895 -43.1477 -5.98099
rradius 11.2937
rwrist 53.0976
rhand -14.8429 -34.1964
rfingers 7.12502
rthumb 11.3163 -63.8711
lclavicle 1.38217e-016 -9.54166e-015
lhumerus -24.9351 -3.70451 85.9402
lradius 59.0003
lwrist 15.2365
lhand -22.7373 -17.9931
lfingers 7.12502
lthumb 3.69681 11.9546
rfemur -47.6074 0.908966 24.1244
rtibia 39.7788
rfoot -10.2143 4.18205
rtoes -5.46654
lfemur -13.4487 -0.313206 -17.7865
ltibia 58.7741
lfoot 23.917 -11.8122
ltoes -18.207
343
root 0.326779 15.8149 34.666 17.0374 5.63522 -1.18544
lowerback -15.1715 -1.54035 3.56132
upperback -5.33658 -2.64096 2.58486
thorax 2.80515 -1.31222 0.245894
lowerneck -4.67009 -0.873342 -0.525082
upperneck 7.3829 -1.13256 0.0255097
head 3.1867 -0.576043 0.0521752
rclavicle -3.64925e-014 2.62396e-014
rhumerus -83.7701 -43.5793 -10.3402
rradius 11.611
rwrist 50.0969
rhand -14.8857 -34.0767
rfingers 7.12502
rthumb 11.275 -63.7537
lclavicle -3.64925e-014 2.62396e-014
lhumerus -25.5429 -3.46861 86.4478
lradius 57.3963
lwrist 14.8077
lhand -22.6762 -17.9871
lfingers 7.12502
lthumb 3.75576 11.9596
rfemur -46.6305 1.04547 24.4978
rtibia 40.085
rfoot -11.2734 4.04853
rtoes -5.40922
lfemur -15.0958 0.0769263 -17.4825
ltibia 61.538
lfoot 23.4125 -11.2581
ltoes -15.9407
344
root 0.326522 15.8396 34.8944 16.9994 5.66353 -1.43091
lowerback -15.2751 -1.41725 3.74872
upperback -5.36034 -2.51197 2.63977
thorax 2.83162 -1.24824 0.217697
lowerneck -4.59106 -0.797674 -0.286617
upperneck 7.67395 -1.04092 -0.0875906
head 3.26919 -0.528279 -0.0226921
rclavicle -1.94157e-014 1.59028e-014
rhumerus -82.1125 -44.2947 -12.4586
rradius 11.6164
rwrist 49.0896
rhand -14.6124 -34.2665
rfingers 7.12502
rthumb 11.5385 -63.9289
lclavicle -1.94157e-014 1.59028e-014
lhumerus -26.1227 -3.35074 86.9017
lradius 55.551
lwrist 14.7402
lhand -22.8204 -18.3604
lfingers 7.12502
lthumb 3.61654 11.5887
rfemur -45.7483 0.939331 24.9317
rtibia 40.2903
rfoot -12.2755 4.22939
rtoes -4.78249
lfemur -16.8063 0.384098 -17.1751
ltibia 64.0789
lfoot 21.9254 -10.8999
ltoes -15.2558
345
root 0.325575 15.86 35.1027 17.0537 5.70168 -1.6009
lowerback -15.2778 -1.29914 3.86061
upperback -5.35428 -2.37462 2.69044
thorax 2.83944 -1.17994 0.231355
lowerneck -4.66131 -1.05712 -0.472629
upperneck 7.76582 -1.38546 0.0520877
head 3.3176 -0.699211 0.0397152
rclavicle -5.17772e-015 -3.97569e-015
rhumerus -80.0582 -45.2222 -14.9874
rradius 11.67
rwrist 47.9231
rhand -14.7349 -34.5909
rfingers 7.12502
rthumb 11.4204 -64.2598
lclavicle -5.17772e-015 -3.97569e-015
lhumerus -26.3709 -3.16976 87.3502
lradius 53.4046
lwrist 14.4153
lhand -22.9814 -18.7675
lfingers 7.12502
lthumb 3.46108 11.1842
rfemur -44.99 0.764054 25.2999
rtibia 40.3552
rfoot -13.111 4.477
rtoes -5.02699
lfemur -18.6797 0.645618 -16.9618
ltibia 66.4525
lfoot 20.001 -10.5046
ltoes -15.0916
